<svg width="24" height="25" viewBox="0 0 24 25" fill="none" xmlns="http://www.w3.org/2000/svg">
<path d="M13.744 2.77848L21.272 7.67169C21.538 7.84459 21.671 7.93104 21.7674 8.04636C21.8527 8.14844 21.9167 8.26651 21.9558 8.39367C22 8.53731 22 8.69594 22 9.0132V16.3449C22 18.0251 22 18.8651 21.673 19.5069C21.3854 20.0714 20.9265 20.5303 20.362 20.8179C19.7202 21.1449 18.8802 21.1449 17.2 21.1449H6.8C5.11984 21.1449 4.27976 21.1449 3.63803 20.8179C3.07354 20.5303 2.6146 20.0714 2.32698 19.5069C2 18.8651 2 18.0251 2 16.3449V9.0132C2 8.69594 2 8.53731 2.04417 8.39367C2.08327 8.26651 2.14735 8.14844 2.23265 8.04636C2.32901 7.93104 2.46201 7.84459 2.72802 7.67169L10.256 2.77848M13.744 2.77848C13.1127 2.36817 12.7971 2.16301 12.457 2.08319C12.1564 2.01263 11.8436 2.01263 11.543 2.08319C11.2029 2.16301 10.8873 2.36817 10.256 2.77848M13.744 2.77848L20.9681 7.47415C21.312 7.6977 21.484 7.80947 21.5435 7.95122C21.5956 8.0751 21.5956 8.21471 21.5435 8.33858C21.484 8.48033 21.312 8.59211 20.9681 8.81566L13.744 13.5113C13.1127 13.9216 12.7971 14.1268 12.457 14.2066C12.1564 14.2772 11.8436 14.2772 11.543 14.2066C11.2029 14.1268 10.8873 13.9216 10.256 13.5113L3.03193 8.81566C2.68801 8.59211 2.51604 8.48033 2.45649 8.33858C2.40444 8.21471 2.40444 8.0751 2.45649 7.95122C2.51604 7.80947 2.68801 7.6977 3.03193 7.47415L10.256 2.77848" stroke="#90F0A8" stroke-width="2" stroke-linecap="round" stroke-linejoin="round"/>
</svg>
