<svg width="179" height="180" viewBox="0 0 179 180" fill="none" xmlns="http://www.w3.org/2000/svg">
<g filter="url(#filter0_b_940_718)">
<path d="M103.062 6.41973C95.6144 -1.02792 83.5394 -1.02794 76.0918 6.41971L5.73809 76.7734C-1.70956 84.221 -1.70957 96.2961 5.73807 103.744L76.0917 174.097C83.5394 181.545 95.6144 181.545 103.062 174.097L173.416 103.744C180.863 96.2961 180.863 84.221 173.416 76.7734L103.062 6.41973Z" fill="white" fill-opacity="0.14"/>
<path d="M76.7989 7.12682C83.856 0.0696956 95.2979 0.0697106 102.355 7.12684L172.709 77.4805C179.766 84.5376 179.766 95.9795 172.709 103.037L102.355 173.39C95.2979 180.447 83.856 180.447 76.7989 173.39L6.44518 103.037C-0.611943 95.9795 -0.611933 84.5376 6.44519 77.4805L76.7989 7.12682Z" stroke="url(#paint0_linear_940_718)" stroke-width="2"/>
</g>
<defs>
<filter id="filter0_b_940_718" x="-33.8477" y="-33.166" width="246.849" height="246.849" filterUnits="userSpaceOnUse" color-interpolation-filters="sRGB">
<feFlood flood-opacity="0" result="BackgroundImageFix"/>
<feGaussianBlur in="BackgroundImageFix" stdDeviation="17"/>
<feComposite in2="SourceAlpha" operator="in" result="effect1_backgroundBlur_940_718"/>
<feBlend mode="normal" in="SourceGraphic" in2="effect1_backgroundBlur_940_718" result="shape"/>
</filter>
<linearGradient id="paint0_linear_940_718" x1="89.5769" y1="0.833984" x2="89.5769" y2="179.683" gradientUnits="userSpaceOnUse">
<stop stop-color="#90F0A8" stop-opacity="0"/>
<stop offset="1" stop-color="#538A61"/>
</linearGradient>
</defs>
</svg>
