<svg width="253" height="62" viewBox="0 0 253 62" fill="none" xmlns="http://www.w3.org/2000/svg">
<path d="M29.2685 0H60.7716V32.1399C60.7716 48.6207 47.6574 62 31.5031 62H0V29.8601C0 13.3793 13.1142 0 29.2685 0Z" fill="#1C7877"/>
<path d="M31.7958 47.6583C31.7102 47.6191 31.6106 47.6583 31.5722 47.7439L30.2129 50.7883C29.9036 51.4835 30.2042 52.3034 30.8855 52.6189C30.9712 52.6581 31.0707 52.6189 31.1092 52.5334L32.4685 49.4889C32.7777 48.7937 32.4772 47.9738 31.7958 47.6583ZM49.3251 15.6753C49.2832 15.5915 49.2308 15.513 49.1679 15.4417C48.9582 15.1993 48.6402 15.0496 48.2576 15.0924L40.1088 16.1512C39.8031 16.1904 39.5078 16.0246 39.3803 15.7394L38.325 13.424C38.1276 12.9908 37.5143 13.0211 37.3588 13.4721C37.3588 13.4721 33.9344 33.6248 20.8096 33.6248C15.8529 33.6248 13.0889 30.4235 13.8752 26.9548C14.7522 23.0797 18.3549 19.3507 22.0065 16.4453C22.0292 16.4275 22.0536 16.4079 22.0763 16.39C22.4555 16.0888 22.8346 15.7982 23.212 15.5166C23.5317 15.2778 23.848 15.046 24.1625 14.8214C24.4595 14.6093 24.7513 14.4043 25.0378 14.2065C25.4606 13.9159 25.8712 13.6414 26.2678 13.383C27.6218 12.4953 28.7977 11.7984 29.6049 11.3385C30.1046 11.0533 30.0819 10.31 29.5629 10.064C29.556 10.0604 29.5472 10.0569 29.5402 10.0515C29.3585 9.96597 29.1506 9.96419 28.9654 10.0444C28.0307 10.4526 27.1851 10.8608 26.4006 11.2743L26.4495 10.4989C26.4862 9.9125 26.0511 9.40627 25.4763 9.36706C25.4047 9.36171 25.3418 9.41697 25.3383 9.49183L25.1811 11.9517C24.884 12.1228 24.5958 12.2975 24.3127 12.4757L24.3826 11.3866C24.4193 10.8002 23.9842 10.2939 23.4094 10.2547C23.3378 10.2494 23.2749 10.3046 23.2714 10.3795L23.0862 13.2814C22.8014 13.4739 22.5201 13.6735 22.2406 13.8749L22.3437 12.26C22.3821 11.6736 21.9453 11.1674 21.3705 11.1281C21.2989 11.1246 21.236 11.1798 21.2325 11.2529L21.0053 14.7947C20.724 15.0104 20.4393 15.2332 20.1527 15.4578L20.3012 13.1352C20.3379 12.5488 19.9029 12.0426 19.3281 12.0033C19.2564 11.998 19.1935 12.0533 19.19 12.1281L18.914 16.4435C18.7043 16.6128 18.4912 16.784 18.2728 16.9586C12.5543 21.5432 8.05709 29.6036 9.0058 36.3271C9.12461 37.1702 9.44085 38.1915 9.83221 39.2254C11.057 42.4624 13.6742 44.94 16.9257 45.9578L28.6212 49.619L28.4657 49.9684C28.1565 50.6635 28.457 51.4835 29.1384 51.799C29.224 51.8382 29.3236 51.799 29.362 51.7134L30.7213 48.669C31.0306 47.9738 30.7301 47.1538 30.0487 46.8383C29.963 46.7991 29.8635 46.8383 29.825 46.9239L29.2677 48.1716C25.6074 46.5514 17.794 43.3037 16.6462 41.9294C15.9543 41.1005 15.8197 40.507 16.1692 39.8599C16.4907 39.261 17.179 38.9865 17.8203 38.7922C20.7171 37.9117 28.27 37.0276 34.0357 39.4803C36.7368 40.63 40.5876 45.5514 41.8717 47.161C41.877 47.1681 41.8857 47.1735 41.8909 47.1806L41.531 47.4836C40.9545 47.9702 40.8741 48.8419 41.3528 49.4301C41.4122 49.5032 41.5188 49.5139 41.5922 49.4532L44.1168 47.3196C44.6934 46.833 44.7738 45.9614 44.295 45.3732C44.2356 45.3001 44.1291 45.2894 44.0574 45.35L43.1804 46.0897C37.0251 37.9438 31.6997 29.9012 45.3381 19.7019C45.553 19.5468 47.5325 18.2527 49.0403 17.0495C49.4998 16.6824 49.5505 16.1066 49.3304 15.6753H49.3251ZM45.5146 46.8936C45.4552 46.8205 45.3486 46.8098 45.2752 46.8704L42.7505 49.0041C42.174 49.4907 42.0936 50.3623 42.5723 50.9505C42.6317 51.0236 42.7383 51.0343 42.8117 50.9737L45.3363 48.8401C45.9129 48.3535 45.9933 47.4818 45.5146 46.8936Z" fill="#90F0A8"/>
<path d="M69.7695 1.02493V22.9637C69.7695 23.2596 70.0037 23.4984 70.2937 23.4984H75.4251C75.7151 23.4984 75.9493 23.2596 75.9493 22.9637V1.02493C75.9493 0.729034 75.7151 0.490182 75.4251 0.490182H70.2937C70.0037 0.490182 69.7695 0.729034 69.7695 1.02493ZM115.764 1.47055C114.39 0.816376 112.762 0.488401 110.877 0.488401H98.741C98.451 0.488401 98.2169 0.727253 98.2169 1.02314V22.9619C98.2169 23.2578 98.451 23.4967 98.741 23.4967H103.916C104.206 23.4967 104.44 23.2578 104.44 22.9619V16.8837C104.44 16.5878 104.674 16.3489 104.964 16.3489H110.875C112.759 16.3489 114.389 16.0227 115.762 15.3668C117.135 14.7126 118.183 13.7875 118.905 12.5897C119.627 11.3936 119.988 10.0086 119.988 8.43291C119.988 6.8572 119.627 5.44191 118.905 4.24587C118.183 3.04982 117.135 2.12472 115.762 1.46876L115.764 1.47055ZM112.832 10.5059C112.271 11.0068 111.488 11.2581 110.485 11.2581H104.966C104.676 11.2581 104.442 11.0193 104.442 10.7234V6.11747C104.442 5.82158 104.676 5.58273 104.966 5.58273H110.485C111.488 5.58273 112.269 5.83406 112.832 6.33493C113.393 6.83581 113.674 7.53633 113.674 8.43648C113.674 9.33663 113.393 10.0068 112.832 10.5077V10.5059ZM87.0682 0.647041L76.3214 11.6111C76.117 11.8196 76.117 12.1583 76.3214 12.3668L79.04 15.1457L87.07 23.338C87.1678 23.4378 87.3023 23.4949 87.4404 23.4949H94.6981C95.1646 23.4949 95.3987 22.9191 95.0685 22.5822L85.0625 12.3668C84.858 12.1583 84.858 11.8196 85.0625 11.6111L95.0685 1.40281C95.3987 1.06592 95.1646 0.490182 94.6981 0.490182H87.4404C87.3006 0.490182 87.1678 0.547222 87.07 0.647041H87.0682ZM245.648 16.4113C245.066 17.1065 244.31 17.6287 243.378 17.9763C242.445 18.3239 241.369 18.4986 240.146 18.4986C238.743 18.4986 237.531 18.2383 236.507 17.7161C235.485 17.1956 234.704 16.4487 234.162 15.4773C233.62 14.5058 233.35 13.3454 233.35 11.9943C233.35 10.6432 233.62 9.48458 234.162 8.51313C234.704 7.54167 235.485 6.79482 236.507 6.27433C237.529 5.75385 238.741 5.49182 240.146 5.49182C241.369 5.49182 242.447 5.67542 243.378 6.04439C244.31 6.41336 245.066 6.93919 245.648 7.62367C246.149 8.21545 246.509 8.91597 246.728 9.72699C246.791 9.9605 246.995 10.1245 247.233 10.1245H252.474C252.796 10.1245 253.045 9.83038 252.993 9.50597C252.71 7.73597 252.057 6.16917 251.031 4.802C249.888 3.27798 248.389 2.09798 246.535 1.25843C244.682 0.420666 242.552 0 240.146 0C237.518 0 235.224 0.500877 233.261 1.50263C231.295 2.50438 229.766 3.90541 228.674 5.70572C227.582 7.50602 227.035 9.60222 227.035 11.9943C227.035 14.3864 227.582 16.4844 228.674 18.2829C229.766 20.0832 231.295 21.4842 233.261 22.486C235.224 23.4877 237.52 23.9886 240.146 23.9886C242.552 23.9886 244.682 23.5697 246.535 22.7302C248.389 21.8924 249.888 20.7106 251.031 19.1866C252.055 17.8212 252.708 16.2527 252.993 14.4827C253.045 14.1582 252.796 13.8641 252.474 13.8641H247.236C246.998 13.8641 246.792 14.0281 246.729 14.2634C246.511 15.094 246.151 15.8088 245.648 16.4095V16.4113ZM210.57 14.2955H223.263C223.553 14.2955 223.787 14.0566 223.787 13.7607V10.2279C223.787 9.93198 223.553 9.69313 223.263 9.69313H210.57C210.28 9.69313 210.046 9.45427 210.046 9.15838V6.17808C210.046 5.88218 210.28 5.64333 210.57 5.64333H224.107C224.397 5.64333 224.631 5.40448 224.631 5.10859V1.02314C224.631 0.727253 224.397 0.488401 224.107 0.488401H204.347C204.057 0.488401 203.823 0.727253 203.823 1.02314V22.9619C203.823 23.2578 204.057 23.4967 204.347 23.4967H224.257C224.547 23.4967 224.782 23.2578 224.782 22.9619V18.8782C224.782 18.5824 224.547 18.3435 224.257 18.3435H210.57C210.28 18.3435 210.046 18.1047 210.046 17.8088V14.8285C210.046 14.5326 210.28 14.2937 210.57 14.2937V14.2955ZM178.906 6.1353H186.457C186.747 6.1353 186.982 6.37415 186.982 6.67004V22.9637C186.982 23.2596 187.216 23.4984 187.506 23.4984H192.712C193.002 23.4984 193.236 23.2596 193.236 22.9637V6.67004C193.236 6.37415 193.471 6.1353 193.761 6.1353H201.312C201.602 6.1353 201.836 5.89645 201.836 5.60055V1.02493C201.836 0.729034 201.602 0.490182 201.312 0.490182H178.906C178.616 0.490182 178.382 0.729034 178.382 1.02493V5.60055C178.382 5.89645 178.616 6.1353 178.906 6.1353ZM168.928 8.98727H158.459C158.169 8.98727 157.935 8.74841 157.935 8.45252V1.02314C157.935 0.727253 157.701 0.488401 157.411 0.488401H152.236C151.946 0.488401 151.712 0.727253 151.712 1.02314V22.9619C151.712 23.2578 151.946 23.4967 152.236 23.4967H157.411C157.701 23.4967 157.935 23.2578 157.935 22.9619V15.1653C157.935 14.8695 158.169 14.6306 158.459 14.6306H168.928C169.218 14.6306 169.452 14.8695 169.452 15.1653V22.9619C169.452 23.2578 169.686 23.4967 169.976 23.4967H175.183C175.473 23.4967 175.707 23.2578 175.707 22.9619V1.02314C175.707 0.727253 175.473 0.488401 175.183 0.488401H169.976C169.686 0.488401 169.452 0.727253 169.452 1.02314V8.45252C169.452 8.74841 169.218 8.98727 168.928 8.98727ZM142.12 1.50263C140.114 0.500877 137.769 0 135.084 0C132.398 0 130.076 0.500877 128.062 1.50263C126.047 2.50438 124.484 3.90541 123.371 5.70572C122.258 7.50602 121.702 9.60222 121.702 11.9943C121.702 14.3864 122.258 16.4844 123.371 18.2829C124.484 20.0832 126.047 21.4842 128.062 22.486C130.076 23.4877 132.418 23.9886 135.084 23.9886C137.75 23.9886 140.116 23.4877 142.12 22.486C144.124 21.4842 145.687 20.0832 146.811 18.2829C147.934 16.4844 148.495 14.3864 148.495 11.9943C148.495 9.60222 147.934 7.50602 146.811 5.70572C145.687 3.9072 144.124 2.50438 142.12 1.50263ZM141.323 15.3685C140.752 16.3097 139.934 17.0352 138.872 17.5467C137.809 18.0583 136.546 18.3132 135.082 18.3132C133.618 18.3132 132.386 18.0583 131.324 17.5467C130.262 17.0352 129.439 16.3097 128.859 15.3685C128.277 14.4274 127.987 13.3026 127.987 11.9943C127.987 10.686 128.277 9.56122 128.859 8.62008C129.44 7.67893 130.262 6.95346 131.324 6.44188C132.386 5.93031 133.639 5.67542 135.082 5.67542C136.525 5.67542 137.808 5.9321 138.872 6.44188C139.934 6.95346 140.752 7.67893 141.323 8.62008C141.894 9.56122 142.181 10.686 142.181 11.9943C142.181 13.3026 141.894 14.4292 141.323 15.3685Z" fill="#1C7877"/>
</svg>
