<svg width="253" height="63" viewBox="0 0 253 63" fill="none" xmlns="http://www.w3.org/2000/svg">
<path d="M29.2685 0.14502H60.7716V32.2849C60.7716 48.7657 47.6574 62.145 31.5031 62.145H0V30.0051C0 13.5243 13.1142 0.14502 29.2685 0.14502Z" fill="#90F0A8"/>
<path d="M31.7958 47.8033C31.7102 47.7641 31.6106 47.8033 31.5722 47.8889L30.2129 50.9333C29.9036 51.6285 30.2042 52.4485 30.8855 52.764C30.9712 52.8032 31.0707 52.764 31.1092 52.6784L32.4685 49.6339C32.7777 48.9388 32.4772 48.1188 31.7958 47.8033ZM49.3251 15.8203C49.2832 15.7365 49.2308 15.6581 49.1679 15.5868C48.9582 15.3444 48.6402 15.1946 48.2576 15.2374L40.1088 16.2962C39.8031 16.3354 39.5078 16.1696 39.3803 15.8844L38.325 13.569C38.1276 13.1359 37.5143 13.1662 37.3588 13.6171C37.3588 13.6171 33.9344 33.7698 20.8096 33.7698C15.8529 33.7698 13.0889 30.5685 13.8752 27.0998C14.7522 23.2247 18.3549 19.4957 22.0065 16.5903C22.0292 16.5725 22.0536 16.5529 22.0763 16.535C22.4555 16.2338 22.8346 15.9433 23.212 15.6616C23.5317 15.4228 23.848 15.1911 24.1625 14.9665C24.4595 14.7543 24.7513 14.5494 25.0378 14.3515C25.4606 14.061 25.8712 13.7865 26.2678 13.528C27.6218 12.6403 28.7977 11.9434 29.6049 11.4835C30.1046 11.1983 30.0819 10.455 29.5629 10.209C29.556 10.2055 29.5472 10.2019 29.5402 10.1965C29.3585 10.111 29.1506 10.1092 28.9654 10.1894C28.0307 10.5976 27.1851 11.0058 26.4006 11.4193L26.4495 10.644C26.4862 10.0575 26.0511 9.55129 25.4763 9.51208C25.4047 9.50673 25.3418 9.56199 25.3383 9.63685L25.1811 12.0967C24.884 12.2678 24.5958 12.4425 24.3127 12.6207L24.3826 11.5316C24.4193 10.9452 23.9842 10.439 23.4094 10.3998C23.3378 10.3944 23.2749 10.4497 23.2714 10.5245L23.0862 13.4264C22.8014 13.6189 22.5201 13.8185 22.2406 14.02L22.3437 12.405C22.3821 11.8186 21.9453 11.3124 21.3705 11.2732C21.2989 11.2696 21.236 11.3249 21.2325 11.3979L21.0053 14.9397C20.724 15.1554 20.4393 15.3782 20.1527 15.6028L20.3012 13.2802C20.3379 12.6938 19.9029 12.1876 19.3281 12.1484C19.2564 12.143 19.1935 12.1983 19.19 12.2731L18.914 16.5885C18.7043 16.7579 18.4912 16.929 18.2728 17.1037C12.5543 21.6882 8.05709 29.7486 9.0058 36.4721C9.12461 37.3152 9.44085 38.3366 9.83221 39.3704C11.057 42.6074 13.6742 45.085 16.9257 46.1028L28.6212 49.764L28.4657 50.1134C28.1565 50.8086 28.457 51.6285 29.1384 51.944C29.224 51.9832 29.3236 51.944 29.362 51.8585L30.7213 48.814C31.0306 48.1188 30.7301 47.2989 30.0487 46.9834C29.963 46.9442 29.8635 46.9834 29.825 47.0689L29.2677 48.3167C25.6074 46.6964 17.794 43.4487 16.6462 42.0744C15.9543 41.2456 15.8197 40.652 16.1692 40.005C16.4907 39.406 17.179 39.1315 17.8203 38.9373C20.7171 38.0567 28.27 37.1726 34.0357 39.6253C36.7368 40.775 40.5876 45.6964 41.8717 47.306C41.877 47.3131 41.8857 47.3185 41.8909 47.3256L41.531 47.6286C40.9545 48.1152 40.8741 48.9869 41.3528 49.5751C41.4122 49.6482 41.5188 49.6589 41.5922 49.5983L44.1168 47.4646C44.6934 46.978 44.7738 46.1064 44.295 45.5182C44.2356 45.4451 44.1291 45.4344 44.0574 45.495L43.1804 46.2347C37.0251 38.0888 31.6997 30.0462 45.3381 19.8469C45.553 19.6918 47.5325 18.3977 49.0403 17.1946C49.4998 16.8274 49.5505 16.2516 49.3304 15.8203H49.3251ZM45.5146 47.0386C45.4552 46.9655 45.3486 46.9549 45.2752 47.0155L42.7505 49.1491C42.174 49.6357 42.0936 50.5073 42.5723 51.0956C42.6317 51.1686 42.7383 51.1793 42.8117 51.1187L45.3363 48.9851C45.9129 48.4985 45.9933 47.6268 45.5146 47.0386Z" fill="#1C7877"/>
<path d="M69.7695 1.16995V23.1087C69.7695 23.4046 70.0037 23.6435 70.2937 23.6435H75.4251C75.7151 23.6435 75.9493 23.4046 75.9493 23.1087V1.16995C75.9493 0.874054 75.7151 0.635202 75.4251 0.635202H70.2937C70.0037 0.635202 69.7695 0.874054 69.7695 1.16995ZM115.764 1.61557C114.39 0.961395 112.762 0.63342 110.877 0.63342H98.741C98.451 0.63342 98.2169 0.872272 98.2169 1.16816V23.1069C98.2169 23.4028 98.451 23.6417 98.741 23.6417H103.916C104.206 23.6417 104.44 23.4028 104.44 23.1069V17.0287C104.44 16.7328 104.674 16.4939 104.964 16.4939H110.875C112.759 16.4939 114.389 16.1677 115.762 15.5118C117.135 14.8576 118.183 13.9325 118.905 12.7347C119.627 11.5386 119.988 10.1536 119.988 8.57793C119.988 7.00222 119.627 5.58693 118.905 4.39089C118.183 3.19484 117.135 2.26974 115.762 1.61378L115.764 1.61557ZM112.832 10.651C112.271 11.1518 111.488 11.4032 110.485 11.4032H104.966C104.676 11.4032 104.442 11.1643 104.442 10.8684V6.26249C104.442 5.9666 104.676 5.72775 104.966 5.72775H110.485C111.488 5.72775 112.269 5.97908 112.832 6.47995C113.393 6.98083 113.674 7.68135 113.674 8.5815C113.674 9.48165 113.393 10.1519 112.832 10.6527V10.651ZM87.0682 0.792061L76.3214 11.7561C76.117 11.9646 76.117 12.3033 76.3214 12.5119L79.04 15.2908L87.07 23.483C87.1678 23.5828 87.3023 23.6399 87.4404 23.6399H94.6981C95.1646 23.6399 95.3987 23.0642 95.0685 22.7273L85.0625 12.5119C84.858 12.3033 84.858 11.9646 85.0625 11.7561L95.0685 1.54783C95.3987 1.21094 95.1646 0.635202 94.6981 0.635202H87.4404C87.3006 0.635202 87.1678 0.692242 87.07 0.792061H87.0682ZM245.648 16.5563C245.066 17.2515 244.31 17.7737 243.378 18.1213C242.445 18.4689 241.369 18.6436 240.146 18.6436C238.743 18.6436 237.531 18.3834 236.507 17.8611C235.485 17.3406 234.704 16.5937 234.162 15.6223C233.62 14.6508 233.35 13.4904 233.35 12.1393C233.35 10.7882 233.62 9.6296 234.162 8.65814C234.704 7.68669 235.485 6.93983 236.507 6.41935C237.529 5.89887 238.741 5.63684 240.146 5.63684C241.369 5.63684 242.447 5.82044 243.378 6.18941C244.31 6.55838 245.066 7.08421 245.648 7.76869C246.149 8.36047 246.509 9.06099 246.728 9.87201C246.791 10.1055 246.995 10.2695 247.233 10.2695H252.474C252.796 10.2695 253.045 9.9754 252.993 9.65099C252.71 7.88099 252.057 6.31419 251.031 4.94702C249.888 3.423 248.389 2.243 246.535 1.40345C244.682 0.565686 242.552 0.14502 240.146 0.14502C237.518 0.14502 235.224 0.645897 233.261 1.64765C231.295 2.6494 229.766 4.05043 228.674 5.85074C227.582 7.65104 227.035 9.74724 227.035 12.1393C227.035 14.5314 227.582 16.6294 228.674 18.4279C229.766 20.2282 231.295 21.6293 233.261 22.631C235.224 23.6328 237.52 24.1336 240.146 24.1336C242.552 24.1336 244.682 23.7148 246.535 22.8752C248.389 22.0374 249.888 20.8557 251.031 19.3316C252.055 17.9663 252.708 16.3977 252.993 14.6277C253.045 14.3033 252.796 14.0092 252.474 14.0092H247.236C246.998 14.0092 246.792 14.1731 246.729 14.4084C246.511 15.2391 246.151 15.9538 245.648 16.5545V16.5563ZM210.57 14.4405H223.263C223.553 14.4405 223.787 14.2017 223.787 13.9058V10.3729C223.787 10.077 223.553 9.83815 223.263 9.83815H210.57C210.28 9.83815 210.046 9.59929 210.046 9.3034V6.3231C210.046 6.0272 210.28 5.78835 210.57 5.78835H224.107C224.397 5.78835 224.631 5.5495 224.631 5.25361V1.16816C224.631 0.872272 224.397 0.63342 224.107 0.63342H204.347C204.057 0.63342 203.823 0.872272 203.823 1.16816V23.1069C203.823 23.4028 204.057 23.6417 204.347 23.6417H224.257C224.547 23.6417 224.782 23.4028 224.782 23.1069V19.0233C224.782 18.7274 224.547 18.4885 224.257 18.4885H210.57C210.28 18.4885 210.046 18.2497 210.046 17.9538V14.9735C210.046 14.6776 210.28 14.4387 210.57 14.4387V14.4405ZM178.906 6.28032H186.457C186.747 6.28032 186.982 6.51917 186.982 6.81506V23.1087C186.982 23.4046 187.216 23.6435 187.506 23.6435H192.712C193.002 23.6435 193.236 23.4046 193.236 23.1087V6.81506C193.236 6.51917 193.471 6.28032 193.761 6.28032H201.312C201.602 6.28032 201.836 6.04146 201.836 5.74557V1.16995C201.836 0.874054 201.602 0.635202 201.312 0.635202H178.906C178.616 0.635202 178.382 0.874054 178.382 1.16995V5.74557C178.382 6.04146 178.616 6.28032 178.906 6.28032ZM168.928 9.13229H158.459C158.169 9.13229 157.935 8.89343 157.935 8.59754V1.16816C157.935 0.872272 157.701 0.63342 157.411 0.63342H152.236C151.946 0.63342 151.712 0.872272 151.712 1.16816V23.1069C151.712 23.4028 151.946 23.6417 152.236 23.6417H157.411C157.701 23.6417 157.935 23.4028 157.935 23.1069V15.3104C157.935 15.0145 158.169 14.7756 158.459 14.7756H168.928C169.218 14.7756 169.452 15.0145 169.452 15.3104V23.1069C169.452 23.4028 169.686 23.6417 169.976 23.6417H175.183C175.473 23.6417 175.707 23.4028 175.707 23.1069V1.16816C175.707 0.872272 175.473 0.63342 175.183 0.63342H169.976C169.686 0.63342 169.452 0.872272 169.452 1.16816V8.59754C169.452 8.89343 169.218 9.13229 168.928 9.13229ZM142.12 1.64765C140.114 0.645897 137.769 0.14502 135.084 0.14502C132.398 0.14502 130.076 0.645897 128.062 1.64765C126.047 2.6494 124.484 4.05043 123.371 5.85074C122.258 7.65104 121.702 9.74724 121.702 12.1393C121.702 14.5314 122.258 16.6294 123.371 18.4279C124.484 20.2282 126.047 21.6293 128.062 22.631C130.076 23.6328 132.418 24.1336 135.084 24.1336C137.75 24.1336 140.116 23.6328 142.12 22.631C144.124 21.6293 145.687 20.2282 146.811 18.4279C147.934 16.6294 148.495 14.5314 148.495 12.1393C148.495 9.74724 147.934 7.65104 146.811 5.85074C145.687 4.05222 144.124 2.6494 142.12 1.64765ZM141.323 15.5136C140.752 16.4547 139.934 17.1802 138.872 17.6918C137.809 18.2033 136.546 18.4582 135.082 18.4582C133.618 18.4582 132.386 18.2033 131.324 17.6918C130.262 17.1802 129.439 16.4547 128.859 15.5136C128.277 14.5724 127.987 13.4477 127.987 12.1393C127.987 10.831 128.277 9.70624 128.859 8.76509C129.44 7.82395 130.262 7.09848 131.324 6.5869C132.386 6.07533 133.639 5.82044 135.082 5.82044C136.525 5.82044 137.808 6.07712 138.872 6.5869C139.934 7.09848 140.752 7.82395 141.323 8.76509C141.894 9.70624 142.181 10.831 142.181 12.1393C142.181 13.4477 141.894 14.5742 141.323 15.5136Z" fill="white"/>
</svg>
