<svg width="428" height="428" viewBox="0 0 428 428" fill="none" xmlns="http://www.w3.org/2000/svg">
<path d="M100.967 268.123L23.9673 312.556C8.66119 283.103 0 249.671 0 214.262C0 180.868 7.69743 149.248 21.4184 121.063L98.6083 165.597C92.2804 180.564 88.7677 197.014 88.7677 214.262C88.7677 233.538 93.1427 251.8 100.967 268.123Z" fill="#E0FFE8"/>
<path d="M201.311 338.777V427.756C133.049 423.751 73.2952 387.62 36.9766 334.316L114.192 289.757C134.659 316.738 165.829 335.19 201.311 338.777Z" fill="#90F0A8"/>
<path d="M391.022 334.316C354.703 387.62 294.95 423.738 226.688 427.756V338.777C262.182 335.19 293.339 316.738 313.807 289.757L391.022 334.316Z" fill="#1C7877"/>
<path d="M427.999 214.262C427.999 249.671 419.338 283.103 404.032 312.556L327.02 268.123C334.844 251.8 339.231 233.538 339.231 214.262C339.231 197.014 335.719 180.577 329.378 165.609L406.593 121.05C420.302 149.236 427.999 180.868 427.999 214.262Z" fill="#90F0A8"/>
<path d="M394.167 98.9609L317.155 143.393C296.839 113.903 264.186 93.5241 226.688 89.7348V0.755859C296.966 4.88734 358.229 43.0592 394.167 98.9609Z" fill="#E0FFE8"/>
<path d="M201.311 0.755859V89.7348C163.826 93.5241 131.16 113.903 110.832 143.393L33.832 98.9609C69.7703 43.0592 131.033 4.88734 201.311 0.755859Z" fill="#1C7877"/>
<path d="M222.23 266.418C221.962 266.295 221.65 266.418 221.53 266.686L217.273 276.219C216.305 278.396 217.246 280.963 219.379 281.951C219.647 282.074 219.959 281.951 220.08 281.683L224.336 272.15C225.305 269.973 224.364 267.406 222.23 266.418ZM277.12 166.268C276.989 166.005 276.825 165.76 276.628 165.536C275.971 164.777 274.976 164.308 273.778 164.442L248.261 167.758C247.303 167.881 246.379 167.362 245.979 166.468L242.675 159.218C242.057 157.862 240.136 157.957 239.649 159.369C239.649 159.369 228.926 222.474 187.828 222.474C172.307 222.474 163.652 212.45 166.114 201.588C168.86 189.453 180.141 177.777 191.576 168.679C191.647 168.623 191.724 168.562 191.795 168.506C192.982 167.562 194.169 166.653 195.351 165.771C196.352 165.023 197.342 164.297 198.327 163.594C199.257 162.93 200.171 162.288 201.068 161.668C202.392 160.758 203.678 159.899 204.92 159.09C209.16 156.31 212.842 154.128 215.369 152.688C216.934 151.794 216.863 149.467 215.238 148.697C215.216 148.686 215.189 148.674 215.167 148.658C214.598 148.39 213.947 148.384 213.367 148.635C210.44 149.913 207.792 151.192 205.335 152.487L205.489 150.059C205.603 148.222 204.241 146.637 202.441 146.514C202.217 146.498 202.02 146.671 202.009 146.905L201.517 154.608C200.587 155.143 199.684 155.69 198.798 156.249L199.016 152.838C199.131 151.002 197.769 149.417 195.969 149.294C195.745 149.277 195.548 149.45 195.537 149.685L194.957 158.771C194.065 159.374 193.184 159.999 192.309 160.63L192.632 155.573C192.752 153.737 191.384 152.152 189.584 152.029C189.36 152.018 189.163 152.191 189.152 152.42L188.441 163.51C187.56 164.186 186.668 164.883 185.771 165.587L186.236 158.314C186.351 156.477 184.989 154.892 183.189 154.769C182.964 154.753 182.767 154.926 182.757 155.16L181.892 168.673C181.236 169.203 180.568 169.739 179.884 170.286C161.978 184.642 147.895 209.882 150.866 230.936C151.238 233.576 152.228 236.774 153.454 240.011C157.289 250.148 165.485 257.906 175.666 261.093L212.289 272.558L211.802 273.652C210.834 275.828 211.775 278.396 213.908 279.384C214.176 279.507 214.488 279.384 214.609 279.116L218.865 269.583C219.834 267.406 218.893 264.838 216.759 263.85C216.491 263.728 216.179 263.85 216.059 264.118L214.313 268.025C202.852 262.952 178.385 252.782 174.791 248.479C172.624 245.883 172.203 244.025 173.297 241.998C174.304 240.123 176.459 239.263 178.467 238.655C187.538 235.898 211.189 233.129 229.244 240.81C237.702 244.41 249.76 259.82 253.781 264.861C253.797 264.883 253.825 264.9 253.841 264.922L252.714 265.871C250.909 267.395 250.657 270.124 252.156 271.966C252.342 272.195 252.676 272.228 252.906 272.038L260.811 265.357C262.617 263.834 262.868 261.104 261.369 259.262C261.183 259.033 260.85 259 260.625 259.19L257.879 261.506C238.605 235.998 221.929 210.814 264.636 178.876C265.308 178.391 271.507 174.338 276.229 170.571C277.667 169.421 277.826 167.618 277.137 166.268H277.12ZM265.188 264.023C265.002 263.794 264.668 263.761 264.439 263.951L256.533 270.632C254.728 272.156 254.476 274.885 255.975 276.727C256.161 276.956 256.495 276.989 256.724 276.8L264.63 270.118C266.435 268.595 266.687 265.865 265.188 264.023Z" fill="#1C7877"/>
</svg>
