<svg width="24" height="25" viewBox="0 0 24 25" fill="none" xmlns="http://www.w3.org/2000/svg">
<path d="M14.0497 6.14502C15.0264 6.33558 15.924 6.81328 16.6277 7.51695C17.3314 8.22063 17.8091 9.11828 17.9997 10.095M14.0497 2.14502C16.0789 2.37046 17.9713 3.27919 19.4159 4.72203C20.8606 6.16486 21.7717 8.05603 21.9997 10.085M10.2266 14.0081C9.02506 12.8065 8.07627 11.4479 7.38028 9.99825C7.32041 9.87356 7.29048 9.81121 7.26748 9.73232C7.18576 9.45197 7.24446 9.10771 7.41447 8.87028C7.46231 8.80347 7.51947 8.74631 7.63378 8.632C7.98338 8.28239 8.15819 8.10759 8.27247 7.93181C8.70347 7.26892 8.70347 6.41434 8.27247 5.75145C8.15819 5.57567 7.98338 5.40087 7.63378 5.05126L7.43891 4.85639C6.90747 4.32495 6.64174 4.05923 6.35636 3.91489C5.7888 3.62782 5.11854 3.62782 4.55098 3.91489C4.2656 4.05923 3.99987 4.32495 3.46843 4.85639L3.3108 5.01403C2.78117 5.54365 2.51636 5.80846 2.31411 6.1685C2.08969 6.568 1.92833 7.18849 1.9297 7.64672C1.93092 8.05966 2.01103 8.34189 2.17124 8.90633C3.03221 11.9397 4.65668 14.8021 7.04466 17.1901C9.43264 19.578 12.295 21.2025 15.3284 22.0635C15.8928 22.2237 16.1751 22.3038 16.588 22.305C17.0462 22.3064 17.6667 22.145 18.0662 21.9206C18.4263 21.7184 18.6911 21.4536 19.2207 20.9239L19.3783 20.7663C19.9098 20.2349 20.1755 19.9691 20.3198 19.6838C20.6069 19.1162 20.6069 18.4459 20.3198 17.8784C20.1755 17.593 19.9098 17.3273 19.3783 16.7958L19.1835 16.601C18.8339 16.2513 18.6591 16.0765 18.4833 15.9623C17.8204 15.5313 16.9658 15.5313 16.3029 15.9623C16.1271 16.0765 15.9523 16.2513 15.6027 16.601C15.4884 16.7153 15.4313 16.7724 15.3644 16.8203C15.127 16.9903 14.7828 17.049 14.5024 16.9672C14.4235 16.9443 14.3612 16.9143 14.2365 16.8545C12.7869 16.1585 11.4282 15.2097 10.2266 14.0081Z" stroke="#90F0A8" stroke-width="2" stroke-linecap="round" stroke-linejoin="round"/>
</svg>
